# xmcd
#
# Track frame offsets: 
#        150
#        22037
#        37341
#        52164
#        71202
#        91779
#        111095
#        129749
#        148271
#        169698
#        187816
#
# Disc length: 2903 seconds
#
# Revision: 0
# Processed by: cddbd v1.5.2PL0 Copyright (c) Steve Scherf et al.
# Submitted via: ExactAudioCopy v1.0b3
#
DISCID=a50b550b
DTITLE=John Mayall - A Special Life
DYEAR=2014
DGENRE=Blues
TTITLE0=Why Did You Go Last Night
TTITLE1=Speak Of The Devil
TTITLE2=That's All Right
TTITLE3=World Gone Crazy
TTITLE4=Floodin' In California
TTITLE5=Big Town Playboy
TTITLE6=A Special Life
TTITLE7=I Just Got To Know
TTITLE8=Heartache
TTITLE9=Like A Fool
TTITLE10=Just A Memory
EXTD=
EXTT0=
EXTT1=
EXTT2=
EXTT3=
EXTT4=
EXTT5=
EXTT6=
EXTT7=
EXTT8=
EXTT9=
EXTT10=
PLAYORDER=
